#!OML:ASF H:\Martial Arts Walks\Project 1\Capture day 1\Session 1\male.ASF
:FULLY-SPECIFIED
:DEGREES
1197
root -5.77688 13.0061 31.9559 -158.946 -63.6644 163.864
lowerback 23.3139 6.08094 -3.49225
upperback 1.30862 6.14139 -4.76335
thorax -11.3863 2.74851 -5.34157
lowerneck -0.837925 14.5901 4.5756
upperneck 9.08376 19.6785 -4.66068
head 4.17613 9.70166 -1.39349
rclavicle -8.25578e-014 -8.63471e-015
rhumerus -54.491 27.4125 -89.4978
rradius 102.923
rwrist 8.84199
rhand -20.2007 -34.6465
rfingers 7.12502
rthumb 6.14605 -64.5373
lclavicle -8.25578e-014 -8.63471e-015
lhumerus -16.1308 -23.6342 76.6164
lradius 112.984
lwrist 24.9957
lhand -20.3669 9.18616
lfingers 7.12502
lthumb 5.98564 39.0816
rfemur -59.0506 -23.8827 1.65603
rtibia 89.4666
rfoot -31.0356 1.69227
rtoes -19.928
lfemur -41.4949 18.2203 -5.99129
ltibia 73.9529
lfoot -28.4576 10.1695
ltoes -25.8416
1198
root -5.78641 12.965 31.9994 -159.547 -64.135 164.737
lowerback 23.2516 6.08686 -3.30624
upperback 1.16399 6.20175 -4.80929
thorax -11.4884 2.76746 -5.52426
lowerneck -0.775264 14.7042 4.56395
upperneck 8.93989 19.8352 -4.73878
head 4.12986 9.77956 -1.41645
rclavicle 1.53313e-014 -5.93372e-014
rhumerus -54.4678 26.7424 -89.9344
rradius 103.002
rwrist 8.23018
rhand -21.0502 -35.662
rfingers 7.12502
rthumb 5.32583 -65.5751
lclavicle 1.53313e-014 -5.93372e-014
lhumerus -15.7588 -24.4174 76.8256
lradius 113.144
lwrist 24.8016
lhand -20.1987 9.12653
lfingers 7.12502
lthumb 6.148 39.0173
rfemur -59.244 -24.2006 2.00367
rtibia 89.6759
rfoot -31.0604 1.60844
rtoes -20.1828
lfemur -42.4087 18.5904 -5.68189
ltibia 74.8268
lfoot -28.9445 9.77933
ltoes -25.8928
1199
root -5.7998 12.9262 32.0375 -160.161 -64.6332 165.453
lowerback 23.2898 6.09205 -3.11803
upperback 1.06946 6.24713 -4.88258
thorax -11.585 2.77515 -5.7412
lowerneck -0.704978 14.7722 4.73716
upperneck 8.81137 19.9342 -4.91987
head 4.12111 9.83082 -1.50024
rclavicle 4.24405e-014 2.5842e-015
rhumerus -54.4058 26.1448 -90.2809
rradius 103.111
rwrist 7.94738
rhand -21.1231 -36.064
rfingers 7.12502
rthumb 5.25548 -65.9789
lclavicle 4.24405e-014 2.5842e-015
lhumerus -15.438 -25.2263 76.9576
lradius 113.312
lwrist 24.6355
lhand -20.0673 9.20441
lfingers 7.12502
lthumb 6.27489 39.0915
rfemur -59.1848 -24.6461 2.21115
rtibia 89.8743
rfoot -31.2198 1.69987
rtoes -20.3549
lfemur -43.0623 18.8951 -5.38122
ltibia 75.6096
lfoot -29.4592 9.38079
ltoes -25.8727
1200
root -5.81278 12.8951 32.074 -160.534 -64.8493 165.937
lowerback 23.2447 6.22979 -3.1456
upperback 0.969918 6.40676 -4.99296
thorax -11.6544 2.84538 -5.90768
lowerneck -0.66497 14.8837 4.28717
upperneck 8.65506 20.0487 -4.44659
head 3.94574 9.89395 -1.29726
rclavicle 5.66536e-015 3.97569e-015
rhumerus -54.3824 25.7069 -90.6074
rradius 103.277
rwrist 7.59481
rhand -21.433 -36.4031
rfingers 7.12502
rthumb 4.95625 -66.3251
lclavicle 5.66536e-015 3.97569e-015
lhumerus -15.1777 -26.0796 77.1434
lradius 113.472
lwrist 24.546
lhand -20.1982 9.24665
lfingers 7.12502
lthumb 6.14844 39.1374
rfemur -59.2656 -24.9082 2.29266
rtibia 90.0358
rfoot -31.3063 1.84082
rtoes -20.5555
lfemur -43.563 19.3392 -5.25035
ltibia 76.2735
lfoot -29.9597 8.88587
ltoes -25.709
1201
root -5.82486 12.8651 32.1078 -161.013 -65.0989 166.433
lowerback 23.3377 6.36838 -3.07239
upperback 0.877515 6.58096 -5.11745
thorax -11.7759 2.91303 -6.16812
lowerneck -0.699037 14.8934 4.52679
upperneck 8.73611 20.0607 -4.50807
head 4.01923 9.90203 -1.34093
rclavicle 9.99887e-014 -7.27552e-014
rhumerus -54.3179 25.172 -90.8117
rradius 103.431
rwrist 7.46059
rhand -21.2504 -36.2555
rfingers 7.12502
rthumb 5.13254 -66.1733
lclavicle 9.99887e-014 -7.27552e-014
lhumerus -14.965 -27.0001 77.3033
lradius 113.622
lwrist 24.5504
lhand -19.9535 9.36996
lfingers 7.12502
lthumb 6.3847 39.2537
rfemur -59.2194 -25.2284 2.35449
rtibia 90.1802
rfoot -31.4382 2.04956
rtoes -20.6929
lfemur -43.9802 19.7014 -5.09361
ltibia 76.8969
lfoot -30.3872 8.45888
ltoes -25.5512
1202
root -5.83751 12.8359 32.1402 -161.145 -65.2896 166.654
lowerback 23.2548 6.43734 -3.21079
upperback 0.765841 6.62466 -5.21373
thorax -11.8607 2.93513 -6.21675
lowerneck -0.574026 14.9352 4.7711
upperneck 8.70394 20.1383 -4.82447
head 4.06108 9.93856 -1.47721
rclavicle 1.2096e-013 -1.1291e-013
rhumerus -54.1507 25.0461 -90.8652
rradius 103.556
rwrist 7.68145
rhand -20.7791 -35.9925
rfingers 7.12502
rthumb 5.5876 -65.8988
lclavicle 1.2096e-013 -1.1291e-013
lhumerus -14.9635 -27.5829 77.4524
lradius 113.829
lwrist 24.8325
lhand -19.8077 9.40213
lfingers 7.12502
lthumb 6.52547 39.2816
rfemur -59.3176 -25.6035 2.32836
rtibia 90.3349
rfoot -31.5279 2.38139
rtoes -20.7879
lfemur -44.4925 20.029 -5.15429
ltibia 77.4834
lfoot -30.6129 8.50074
ltoes -25.8022
1203
root -5.84908 12.8033 32.1737 -161.256 -65.5009 166.826
lowerback 23.2593 6.59926 -3.20996
upperback 0.652962 6.80848 -5.38693
thorax -11.9581 3.00984 -6.48756
lowerneck -0.630031 14.9107 4.92988
upperneck 8.849 20.0891 -4.67863
head 4.1212 9.91953 -1.44652
rclavicle -8.29926e-014 2.8625e-014
rhumerus -54.151 24.4808 -91.1149
rradius 103.77
rwrist 7.74864
rhand -20.8712 -36.0001
rfingers 7.12502
rthumb 5.49873 -65.9087
lclavicle -8.29926e-014 2.8625e-014
lhumerus -14.8558 -28.5571 77.548
lradius 114.025
lwrist 25.3122
lhand -19.5669 9.32019
lfingers 7.12502
lthumb 6.75788 39.1923
rfemur -59.4038 -26.0232 2.27567
rtibia 90.4983
rfoot -31.64 2.64667
rtoes -21.1356
lfemur -45.0369 20.4218 -5.23109
ltibia 78.0808
lfoot -30.89 8.11336
ltoes -25.5459
1204
root -5.86145 12.7716 32.2002 -161.221 -65.7189 166.785
lowerback 23.2139 6.69702 -3.42215
upperback 0.552396 6.86858 -5.46417
thorax -12.0615 3.04264 -6.48364
lowerneck -0.52102 14.8789 5.26247
upperneck 8.94139 20.0644 -4.93771
head 4.20914 9.90746 -1.57851
rclavicle 4.24405e-014 -3.37934e-014
rhumerus -54.1692 24.5688 -91.3093
rradius 104.029
rwrist 7.48061
rhand -21.6605 -36.6148
rfingers 7.12502
rthumb 4.73661 -66.5419
lclavicle 4.24405e-014 -3.37934e-014
lhumerus -14.9696 -29.1548 77.7718
lradius 114.26
lwrist 25.9
lhand -19.3203 9.27465
lfingers 7.12502
lthumb 6.99598 39.139
rfemur -59.4026 -26.5091 2.12738
rtibia 90.6692
rfoot -31.7842 2.85448
rtoes -21.7046
lfemur -45.4877 20.6159 -5.37716
ltibia 78.6466
lfoot -31.0228 8.17032
ltoes -25.7084
1205
root -5.87306 12.7422 32.2253 -161.372 -65.9707 166.941
lowerback 23.1839 6.77537 -3.50371
upperback 0.483238 6.94911 -5.48184
thorax -12.1271 3.08243 -6.48952
lowerneck -0.567351 14.8986 5.04403
upperneck 9.07814 20.0822 -4.75578
head 4.21688 9.91134 -1.48171
rclavicle 6.7885e-014 2.38542e-015
rhumerus -54.1315 24.5957 -91.3737
rradius 104.276
rwrist 7.47384
rhand -21.7558 -36.8517
rfingers 7.12502
rthumb 4.64456 -66.7808
lclavicle 6.7885e-014 2.38542e-015
lhumerus -15.0457 -29.6586 78.0239
lradius 114.498
lwrist 26.3625
lhand -18.9812 9.13474
lfingers 7.12502
lthumb 7.32327 38.988
rfemur -59.3847 -26.9734 2.0776
rtibia 90.8311
rfoot -31.9198 3.15364
rtoes -21.8088
lfemur -45.9197 20.8346 -5.39073
ltibia 79.2059
lfoot -31.2664 7.83705
ltoes -25.3574
1206
root -5.88541 12.7143 32.2526 -161.396 -66.2324 167.028
lowerback 23.0788 6.80325 -3.54144
upperback 0.397435 6.97556 -5.54157
thorax -12.1635 3.09508 -6.5413
lowerneck -0.567587 14.9238 4.93246
upperneck 9.15073 20.1058 -4.60131
head 4.21004 9.92272 -1.41436
rclavicle 3.3197e-014 -1.27222e-014
rhumerus -54.0494 24.7806 -91.4088
rradius 104.536
rwrist 7.46987
rhand -21.5413 -36.43
rfingers 7.12502
rthumb 4.8517 -66.3544
lclavicle 3.3197e-014 -1.27222e-014
lhumerus -15.1719 -30.0767 78.1789
lradius 114.75
lwrist 26.613
lhand -18.7932 9.00867
lfingers 7.12502
lthumb 7.50476 38.8555
rfemur -59.4396 -27.4792 2.0368
rtibia 90.9806
rfoot -32.0136 3.417
rtoes -22.105
lfemur -46.4377 21.0087 -5.48472
ltibia 79.7526
lfoot -31.464 7.59395
ltoes -25.1223
1207
root -5.89677 12.688 32.2767 -161.743 -66.5153 167.433
lowerback 22.9412 6.7573 -3.53445
upperback 0.33513 6.93719 -5.50568
thorax -12.1661 3.08189 -6.48045
lowerneck -0.480508 14.9571 4.921
upperneck 9.06176 20.165 -4.76585
head 4.18566 9.94849 -1.47041
rclavicle 1.70955e-014 -3.77691e-014
rhumerus -53.891 25.246 -91.3949
rradius 104.755
rwrist 7.44969
rhand -21.6803 -36.6203
rfingers 7.12502
rthumb 4.71751 -66.5478
lclavicle 1.70955e-014 -3.77691e-014
lhumerus -15.3748 -30.1763 78.3123
lradius 114.996
lwrist 26.4894
lhand -18.374 8.92162
lfingers 7.12502
lthumb 7.90937 38.7537
rfemur -59.4606 -27.9237 2.14601
rtibia 91.1098
rfoot -32.0674 3.77687
rtoes -21.9768
lfemur -46.9187 21.1659 -5.41815
ltibia 80.2926
lfoot -31.6262 7.47439
ltoes -25.0682
1208
root -5.9096 12.6645 32.2989 -161.917 -66.8293 167.628
lowerback 22.7739 6.64868 -3.69998
upperback 0.299668 6.7855 -5.3853
thorax -12.1611 3.02987 -6.18464
lowerneck -0.424131 15.1475 4.36488
upperneck 8.9772 20.4087 -4.49543
head 4.05247 10.0632 -1.30533
rclavicle -4.73108e-014 3.97569e-016
rhumerus -53.7045 26.0011 -91.2664
rradius 104.96
rwrist 7.42292
rhand -21.596 -36.453
rfingers 7.12502
rthumb 4.7989 -66.3787
lclavicle -4.73108e-014 3.97569e-016
lhumerus -15.6863 -29.9446 78.4588
lradius 115.252
lwrist 26.0774
lhand -18.1254 8.71606
lfingers 7.12502
lthumb 8.14928 38.5389
rfemur -59.4069 -28.4801 2.16108
rtibia 91.229
rfoot -32.1788 4.02125
rtoes -22.047
lfemur -47.3227 21.1421 -5.41578
ltibia 80.7788
lfoot -31.7674 7.46591
ltoes -24.956
